<?xml version="1.0" encoding="UTF-8" standalone="no"?>
<!-- Created with Inkscape (http://www.inkscape.org/) -->

<svg
   width="88.081001mm"
   height="88.081001mm"
   viewBox="0 0 88.081002 88.081001"
   version="1.1"
   id="svg5"
   inkscape:version="1.1.1 (3bf5ae0d25, 2021-09-20, custom)"
   sodipodi:docname="logo.svg"
   xmlns:inkscape="http://www.inkscape.org/namespaces/inkscape"
   xmlns:sodipodi="http://sodipodi.sourceforge.net/DTD/sodipodi-0.dtd"
   xmlns="http://www.w3.org/2000/svg"
   xmlns:svg="http://www.w3.org/2000/svg">
  <sodipodi:namedview
     id="namedview7"
     pagecolor="#ffffff"
     bordercolor="#666666"
     borderopacity="1.0"
     inkscape:pageshadow="2"
     inkscape:pageopacity="0.0"
     inkscape:pagecheckerboard="0"
     inkscape:document-units="mm"
     showgrid="false"
     inkscape:object-paths="false"
     inkscape:snap-midpoints="false"
     inkscape:snap-smooth-nodes="false"
     inkscape:snap-intersection-paths="false"
     inkscape:object-nodes="false"
     inkscape:snap-nodes="false"
     inkscape:zoom="1.0897757"
     inkscape:cx="57.810061"
     inkscape:cy="219.76999"
     inkscape:window-width="1916"
     inkscape:window-height="1034"
     inkscape:window-x="0"
     inkscape:window-y="0"
     inkscape:window-maximized="1"
     inkscape:current-layer="layer1" />
  <defs
     id="defs2">
    <rect
       x="-140.17239"
       y="35.130276"
       width="126.93745"
       height="182.8793"
       id="rect5739" />
    <rect
       x="533.45703"
       y="286.21472"
       width="139.87735"
       height="160.83917"
       id="rect38422" />
    <rect
       x="242.72655"
       y="435.96887"
       width="189.67445"
       height="40.765491"
       id="rect3711" />
    <rect
       x="87.914192"
       y="396.88318"
       width="462.39346"
       height="418.11987"
       id="rect825" />
  </defs>
  <g
     inkscape:label="Capa 1"
     inkscape:groupmode="layer"
     id="layer1"
     transform="translate(-62.595867,-88.630951)">
    <rect
       style="fill:#0068ff;fill-opacity:1;stroke-width:0.269639"
       id="rect25865"
       width="88.081001"
       height="88.081001"
       x="62.595867"
       y="88.630951"
       ry="22.499945" />
    <g
       aria-label="X"
       transform="matrix(0.26458333,0,0,0.26458333,54.984328,0.07306084)"
       id="text823"
       style="font-style:italic;font-weight:bold;font-size:192px;line-height:1.25;-inkscape-font-specification:'sans-serif Bold Italic';white-space:pre;shape-inside:url(#rect825);fill:#ffffff">
      <path
         d="m 183.72206,499.71968 58.176,-68.544 h -33.6 l -35.136,45.312 -15.168,-45.312 h -34.176 l 27.84,69.504 -59.519997,70.464 h 33.599997 l 36.288,-47.808 17.28,47.808 h 34.368 z"
         id="path4347" />
    </g>
    <text
       xml:space="preserve"
       transform="scale(0.26458333)"
       id="text3709"
       style="font-style:normal;font-weight:normal;font-size:40px;line-height:1.25;font-family:sans-serif;white-space:pre;shape-inside:url(#rect3711);fill:#000000;fill-opacity:1;stroke:none" />
    <circle
       style="fill:#00ff00;fill-opacity:0.701246;stroke-width:0.775413"
       id="path26042"
       cx="131.21295"
       cy="106.95127"
       r="11.63118" />
    <g
       aria-label="n"
       transform="matrix(0.37968573,0,0,0.37968573,-91.562753,9.4342835)"
       id="text38420"
       style="font-size:96px;line-height:1.25;white-space:pre;shape-inside:url(#rect38422);fill:#ffffff">
      <path
         d="m 550.54503,321.50528 -11.04,51.84 h 13.44 l 6.24,-29.184 c 1.632,-7.968 6.624,-12.768 13.152,-12.768 3.456,0 5.76,1.344 6.624,4.032 0.288,0.96 0.48,2.016 0.48,3.168 0,1.344 -0.192,2.496 -0.576,4.704 l -6.432,30.048 h 13.44 l 7.392,-34.752 c 0.384,-1.824 0.576,-3.552 0.576,-5.28 0,-5.76 -3.264,-10.272 -8.64,-11.904 -1.728,-0.48 -3.552,-0.768 -5.472,-0.768 -7.104,0 -12.288,2.592 -17.472,8.736 l 1.728,-7.872 z"
         style="font-style:italic;font-weight:bold;-inkscape-font-specification:'sans-serif Bold Italic'"
         id="path4350" />
    </g>
    <circle
       style="fill:#00ff00;stroke-width:0.276366"
       id="path47682"
       cx="131.21295"
       cy="106.95127"
       r="7.3117471" />
    <text
       xml:space="preserve"
       transform="matrix(0.26458333,0,0,0.26458333,62.595867,88.630951)"
       id="text5737"
       style="font-style:normal;font-weight:normal;font-size:40px;line-height:1.25;font-family:sans-serif;white-space:pre;shape-inside:url(#rect5739);fill:#000000;fill-opacity:1;stroke:none" />
  </g>
</svg>
